<mxfile host="app.diagrams.net" modified="2023-10-13T04:36:00.803Z" agent="Mozilla/5.0 (Windows NT 10.0; Win64; x64) AppleWebKit/537.36 (KHTML, like Gecko) Chrome/116.0.5845.967 YaBrowser/23.9.1.967 Yowser/2.5 Safari/537.36" etag="VgzXC1njGbPXAYxu12dw" version="22.0.4" type="device" pages="4">
  <diagram id="qQT3CiaciKwYiMeH4Een" name="БД">
    <mxGraphModel dx="2649" dy="1002" grid="1" gridSize="10" guides="1" tooltips="1" connect="1" arrows="1" fold="1" page="1" pageScale="1" pageWidth="827" pageHeight="1169" math="0" shadow="0">
      <root>
        <mxCell id="0" />
        <mxCell id="1" parent="0" />
        <mxCell id="xolFjbOTE0ueHD5d9xHR-1" value="Доски" style="shape=table;startSize=30;container=1;collapsible=0;childLayout=tableLayout;strokeColor=default;fontSize=16;" parent="1" vertex="1">
          <mxGeometry x="100" y="290" width="340" height="150" as="geometry" />
        </mxCell>
        <mxCell id="xolFjbOTE0ueHD5d9xHR-2" value="" style="shape=tableRow;horizontal=0;startSize=0;swimlaneHead=0;swimlaneBody=0;strokeColor=inherit;top=0;left=0;bottom=0;right=0;collapsible=0;dropTarget=0;fillColor=none;points=[[0,0.5],[1,0.5]];portConstraint=eastwest;fontSize=16;" parent="xolFjbOTE0ueHD5d9xHR-1" vertex="1">
          <mxGeometry y="30" width="340" height="40" as="geometry" />
        </mxCell>
        <mxCell id="xolFjbOTE0ueHD5d9xHR-3" value="desk_id" style="shape=partialRectangle;html=1;whiteSpace=wrap;connectable=0;strokeColor=inherit;overflow=hidden;fillColor=none;top=0;left=0;bottom=0;right=0;pointerEvents=1;fontSize=16;" parent="xolFjbOTE0ueHD5d9xHR-2" vertex="1">
          <mxGeometry width="100" height="40" as="geometry">
            <mxRectangle width="100" height="40" as="alternateBounds" />
          </mxGeometry>
        </mxCell>
        <mxCell id="xolFjbOTE0ueHD5d9xHR-4" value="desk_name" style="shape=partialRectangle;html=1;whiteSpace=wrap;connectable=0;strokeColor=inherit;overflow=hidden;fillColor=none;top=0;left=0;bottom=0;right=0;pointerEvents=1;fontSize=16;" parent="xolFjbOTE0ueHD5d9xHR-2" vertex="1">
          <mxGeometry x="100" width="130" height="40" as="geometry">
            <mxRectangle width="130" height="40" as="alternateBounds" />
          </mxGeometry>
        </mxCell>
        <mxCell id="xolFjbOTE0ueHD5d9xHR-5" value="desk_number" style="shape=partialRectangle;html=1;whiteSpace=wrap;connectable=0;strokeColor=inherit;overflow=hidden;fillColor=none;top=0;left=0;bottom=0;right=0;pointerEvents=1;fontSize=16;" parent="xolFjbOTE0ueHD5d9xHR-2" vertex="1">
          <mxGeometry x="230" width="110" height="40" as="geometry">
            <mxRectangle width="110" height="40" as="alternateBounds" />
          </mxGeometry>
        </mxCell>
        <mxCell id="xolFjbOTE0ueHD5d9xHR-6" value="" style="shape=tableRow;horizontal=0;startSize=0;swimlaneHead=0;swimlaneBody=0;strokeColor=inherit;top=0;left=0;bottom=0;right=0;collapsible=0;dropTarget=0;fillColor=none;points=[[0,0.5],[1,0.5]];portConstraint=eastwest;fontSize=16;" parent="xolFjbOTE0ueHD5d9xHR-1" vertex="1">
          <mxGeometry y="70" width="340" height="40" as="geometry" />
        </mxCell>
        <mxCell id="xolFjbOTE0ueHD5d9xHR-7" value="1" style="shape=partialRectangle;html=1;whiteSpace=wrap;connectable=0;strokeColor=inherit;overflow=hidden;fillColor=none;top=0;left=0;bottom=0;right=0;pointerEvents=1;fontSize=16;" parent="xolFjbOTE0ueHD5d9xHR-6" vertex="1">
          <mxGeometry width="100" height="40" as="geometry">
            <mxRectangle width="100" height="40" as="alternateBounds" />
          </mxGeometry>
        </mxCell>
        <mxCell id="xolFjbOTE0ueHD5d9xHR-8" value="desk1" style="shape=partialRectangle;html=1;whiteSpace=wrap;connectable=0;strokeColor=inherit;overflow=hidden;fillColor=none;top=0;left=0;bottom=0;right=0;pointerEvents=1;fontSize=16;" parent="xolFjbOTE0ueHD5d9xHR-6" vertex="1">
          <mxGeometry x="100" width="130" height="40" as="geometry">
            <mxRectangle width="130" height="40" as="alternateBounds" />
          </mxGeometry>
        </mxCell>
        <mxCell id="xolFjbOTE0ueHD5d9xHR-9" value="0" style="shape=partialRectangle;html=1;whiteSpace=wrap;connectable=0;strokeColor=inherit;overflow=hidden;fillColor=none;top=0;left=0;bottom=0;right=0;pointerEvents=1;fontSize=16;" parent="xolFjbOTE0ueHD5d9xHR-6" vertex="1">
          <mxGeometry x="230" width="110" height="40" as="geometry">
            <mxRectangle width="110" height="40" as="alternateBounds" />
          </mxGeometry>
        </mxCell>
        <mxCell id="xolFjbOTE0ueHD5d9xHR-10" value="" style="shape=tableRow;horizontal=0;startSize=0;swimlaneHead=0;swimlaneBody=0;strokeColor=inherit;top=0;left=0;bottom=0;right=0;collapsible=0;dropTarget=0;fillColor=none;points=[[0,0.5],[1,0.5]];portConstraint=eastwest;fontSize=16;" parent="xolFjbOTE0ueHD5d9xHR-1" vertex="1">
          <mxGeometry y="110" width="340" height="40" as="geometry" />
        </mxCell>
        <mxCell id="xolFjbOTE0ueHD5d9xHR-11" value="2" style="shape=partialRectangle;html=1;whiteSpace=wrap;connectable=0;strokeColor=inherit;overflow=hidden;fillColor=none;top=0;left=0;bottom=0;right=0;pointerEvents=1;fontSize=16;" parent="xolFjbOTE0ueHD5d9xHR-10" vertex="1">
          <mxGeometry width="100" height="40" as="geometry">
            <mxRectangle width="100" height="40" as="alternateBounds" />
          </mxGeometry>
        </mxCell>
        <mxCell id="xolFjbOTE0ueHD5d9xHR-12" value="desk_2" style="shape=partialRectangle;html=1;whiteSpace=wrap;connectable=0;strokeColor=inherit;overflow=hidden;fillColor=none;top=0;left=0;bottom=0;right=0;pointerEvents=1;fontSize=16;" parent="xolFjbOTE0ueHD5d9xHR-10" vertex="1">
          <mxGeometry x="100" width="130" height="40" as="geometry">
            <mxRectangle width="130" height="40" as="alternateBounds" />
          </mxGeometry>
        </mxCell>
        <mxCell id="xolFjbOTE0ueHD5d9xHR-13" value="1" style="shape=partialRectangle;html=1;whiteSpace=wrap;connectable=0;strokeColor=inherit;overflow=hidden;fillColor=none;top=0;left=0;bottom=0;right=0;pointerEvents=1;fontSize=16;" parent="xolFjbOTE0ueHD5d9xHR-10" vertex="1">
          <mxGeometry x="230" width="110" height="40" as="geometry">
            <mxRectangle width="110" height="40" as="alternateBounds" />
          </mxGeometry>
        </mxCell>
        <mxCell id="GIW9BwxVYmhCBeV7tSWF-1" value="Колонки в досках" style="shape=table;startSize=30;container=1;collapsible=0;childLayout=tableLayout;strokeColor=default;fontSize=16;" parent="1" vertex="1">
          <mxGeometry x="70" y="620" width="590.0000000000002" height="170.00000000000023" as="geometry" />
        </mxCell>
        <mxCell id="GIW9BwxVYmhCBeV7tSWF-2" value="" style="shape=tableRow;horizontal=0;startSize=0;swimlaneHead=0;swimlaneBody=0;strokeColor=inherit;top=0;left=0;bottom=0;right=0;collapsible=0;dropTarget=0;fillColor=none;points=[[0,0.5],[1,0.5]];portConstraint=eastwest;fontSize=16;" parent="GIW9BwxVYmhCBeV7tSWF-1" vertex="1">
          <mxGeometry y="30" width="590.0000000000002" height="60" as="geometry" />
        </mxCell>
        <mxCell id="GIW9BwxVYmhCBeV7tSWF-3" value="column_id" style="shape=partialRectangle;html=1;whiteSpace=wrap;connectable=0;strokeColor=inherit;overflow=hidden;fillColor=none;top=0;left=0;bottom=0;right=0;pointerEvents=1;fontSize=16;" parent="GIW9BwxVYmhCBeV7tSWF-2" vertex="1">
          <mxGeometry width="100" height="60" as="geometry">
            <mxRectangle width="100" height="60" as="alternateBounds" />
          </mxGeometry>
        </mxCell>
        <mxCell id="GIW9BwxVYmhCBeV7tSWF-4" value="desk_id" style="shape=partialRectangle;html=1;whiteSpace=wrap;connectable=0;strokeColor=inherit;overflow=hidden;fillColor=none;top=0;left=0;bottom=0;right=0;pointerEvents=1;fontSize=16;" parent="GIW9BwxVYmhCBeV7tSWF-2" vertex="1">
          <mxGeometry x="100" width="130" height="60" as="geometry">
            <mxRectangle width="130" height="60" as="alternateBounds" />
          </mxGeometry>
        </mxCell>
        <mxCell id="GIW9BwxVYmhCBeV7tSWF-5" value="column_name" style="shape=partialRectangle;html=1;whiteSpace=wrap;connectable=0;strokeColor=inherit;overflow=hidden;fillColor=none;top=0;left=0;bottom=0;right=0;pointerEvents=1;fontSize=16;" parent="GIW9BwxVYmhCBeV7tSWF-2" vertex="1">
          <mxGeometry x="230" width="180" height="60" as="geometry">
            <mxRectangle width="180" height="60" as="alternateBounds" />
          </mxGeometry>
        </mxCell>
        <mxCell id="GIW9BwxVYmhCBeV7tSWF-30" value="column_number_in desk&lt;br&gt;" style="shape=partialRectangle;html=1;whiteSpace=wrap;connectable=0;strokeColor=inherit;overflow=hidden;fillColor=none;top=0;left=0;bottom=0;right=0;pointerEvents=1;fontSize=16;" parent="GIW9BwxVYmhCBeV7tSWF-2" vertex="1">
          <mxGeometry x="410" width="180" height="60" as="geometry">
            <mxRectangle width="180" height="60" as="alternateBounds" />
          </mxGeometry>
        </mxCell>
        <mxCell id="GIW9BwxVYmhCBeV7tSWF-6" value="" style="shape=tableRow;horizontal=0;startSize=0;swimlaneHead=0;swimlaneBody=0;strokeColor=inherit;top=0;left=0;bottom=0;right=0;collapsible=0;dropTarget=0;fillColor=none;points=[[0,0.5],[1,0.5]];portConstraint=eastwest;fontSize=16;" parent="GIW9BwxVYmhCBeV7tSWF-1" vertex="1">
          <mxGeometry y="90" width="590.0000000000002" height="40" as="geometry" />
        </mxCell>
        <mxCell id="GIW9BwxVYmhCBeV7tSWF-7" value="1" style="shape=partialRectangle;html=1;whiteSpace=wrap;connectable=0;strokeColor=inherit;overflow=hidden;fillColor=none;top=0;left=0;bottom=0;right=0;pointerEvents=1;fontSize=16;" parent="GIW9BwxVYmhCBeV7tSWF-6" vertex="1">
          <mxGeometry width="100" height="40" as="geometry">
            <mxRectangle width="100" height="40" as="alternateBounds" />
          </mxGeometry>
        </mxCell>
        <mxCell id="GIW9BwxVYmhCBeV7tSWF-8" value="4" style="shape=partialRectangle;html=1;whiteSpace=wrap;connectable=0;strokeColor=inherit;overflow=hidden;fillColor=none;top=0;left=0;bottom=0;right=0;pointerEvents=1;fontSize=16;" parent="GIW9BwxVYmhCBeV7tSWF-6" vertex="1">
          <mxGeometry x="100" width="130" height="40" as="geometry">
            <mxRectangle width="130" height="40" as="alternateBounds" />
          </mxGeometry>
        </mxCell>
        <mxCell id="GIW9BwxVYmhCBeV7tSWF-9" value="column_1" style="shape=partialRectangle;html=1;whiteSpace=wrap;connectable=0;strokeColor=inherit;overflow=hidden;fillColor=none;top=0;left=0;bottom=0;right=0;pointerEvents=1;fontSize=16;" parent="GIW9BwxVYmhCBeV7tSWF-6" vertex="1">
          <mxGeometry x="230" width="180" height="40" as="geometry">
            <mxRectangle width="180" height="40" as="alternateBounds" />
          </mxGeometry>
        </mxCell>
        <mxCell id="GIW9BwxVYmhCBeV7tSWF-31" value="0" style="shape=partialRectangle;html=1;whiteSpace=wrap;connectable=0;strokeColor=inherit;overflow=hidden;fillColor=none;top=0;left=0;bottom=0;right=0;pointerEvents=1;fontSize=16;" parent="GIW9BwxVYmhCBeV7tSWF-6" vertex="1">
          <mxGeometry x="410" width="180" height="40" as="geometry">
            <mxRectangle width="180" height="40" as="alternateBounds" />
          </mxGeometry>
        </mxCell>
        <mxCell id="GIW9BwxVYmhCBeV7tSWF-10" value="" style="shape=tableRow;horizontal=0;startSize=0;swimlaneHead=0;swimlaneBody=0;strokeColor=inherit;top=0;left=0;bottom=0;right=0;collapsible=0;dropTarget=0;fillColor=none;points=[[0,0.5],[1,0.5]];portConstraint=eastwest;fontSize=16;" parent="GIW9BwxVYmhCBeV7tSWF-1" vertex="1">
          <mxGeometry y="130" width="590.0000000000002" height="40" as="geometry" />
        </mxCell>
        <mxCell id="GIW9BwxVYmhCBeV7tSWF-11" value="2" style="shape=partialRectangle;html=1;whiteSpace=wrap;connectable=0;strokeColor=inherit;overflow=hidden;fillColor=none;top=0;left=0;bottom=0;right=0;pointerEvents=1;fontSize=16;" parent="GIW9BwxVYmhCBeV7tSWF-10" vertex="1">
          <mxGeometry width="100" height="40" as="geometry">
            <mxRectangle width="100" height="40" as="alternateBounds" />
          </mxGeometry>
        </mxCell>
        <mxCell id="GIW9BwxVYmhCBeV7tSWF-12" value="2" style="shape=partialRectangle;html=1;whiteSpace=wrap;connectable=0;strokeColor=inherit;overflow=hidden;fillColor=none;top=0;left=0;bottom=0;right=0;pointerEvents=1;fontSize=16;" parent="GIW9BwxVYmhCBeV7tSWF-10" vertex="1">
          <mxGeometry x="100" width="130" height="40" as="geometry">
            <mxRectangle width="130" height="40" as="alternateBounds" />
          </mxGeometry>
        </mxCell>
        <mxCell id="GIW9BwxVYmhCBeV7tSWF-13" value="column_5" style="shape=partialRectangle;html=1;whiteSpace=wrap;connectable=0;strokeColor=inherit;overflow=hidden;fillColor=none;top=0;left=0;bottom=0;right=0;pointerEvents=1;fontSize=16;" parent="GIW9BwxVYmhCBeV7tSWF-10" vertex="1">
          <mxGeometry x="230" width="180" height="40" as="geometry">
            <mxRectangle width="180" height="40" as="alternateBounds" />
          </mxGeometry>
        </mxCell>
        <mxCell id="GIW9BwxVYmhCBeV7tSWF-32" value="0" style="shape=partialRectangle;html=1;whiteSpace=wrap;connectable=0;strokeColor=inherit;overflow=hidden;fillColor=none;top=0;left=0;bottom=0;right=0;pointerEvents=1;fontSize=16;" parent="GIW9BwxVYmhCBeV7tSWF-10" vertex="1">
          <mxGeometry x="410" width="180" height="40" as="geometry">
            <mxRectangle width="180" height="40" as="alternateBounds" />
          </mxGeometry>
        </mxCell>
        <mxCell id="GIW9BwxVYmhCBeV7tSWF-14" value="id доски, которой принадлежит столбец" style="text;html=1;strokeColor=none;fillColor=none;align=center;verticalAlign=middle;whiteSpace=wrap;rounded=0;fontSize=14;" parent="1" vertex="1">
          <mxGeometry x="150" y="504.5" width="160" height="80" as="geometry" />
        </mxCell>
        <mxCell id="GIW9BwxVYmhCBeV7tSWF-15" value="" style="endArrow=classic;html=1;rounded=0;entryX=0.289;entryY=-0.039;entryDx=0;entryDy=0;entryPerimeter=0;exitX=0.127;exitY=1.025;exitDx=0;exitDy=0;exitPerimeter=0;" parent="1" source="xolFjbOTE0ueHD5d9xHR-10" target="GIW9BwxVYmhCBeV7tSWF-2" edge="1">
          <mxGeometry width="50" height="50" relative="1" as="geometry">
            <mxPoint x="350" y="550" as="sourcePoint" />
            <mxPoint x="400" y="500" as="targetPoint" />
          </mxGeometry>
        </mxCell>
        <mxCell id="nqXtmgARafZ_snSrgaBg-1" value="" style="endArrow=classic;html=1;rounded=0;entryX=0.884;entryY=0.028;entryDx=0;entryDy=0;entryPerimeter=0;" parent="1" target="GIW9BwxVYmhCBeV7tSWF-2" edge="1">
          <mxGeometry width="50" height="50" relative="1" as="geometry">
            <mxPoint x="640" y="570" as="sourcePoint" />
            <mxPoint x="690" y="520" as="targetPoint" />
          </mxGeometry>
        </mxCell>
        <mxCell id="nqXtmgARafZ_snSrgaBg-2" value="Номер колонки в доске" style="text;html=1;strokeColor=none;fillColor=none;align=center;verticalAlign=middle;whiteSpace=wrap;rounded=0;" parent="1" vertex="1">
          <mxGeometry x="590" y="530" width="170" height="30" as="geometry" />
        </mxCell>
        <mxCell id="4DtvbH22VJhIOe2bg9fZ-40" value="&lt;font style=&quot;font-size: 14px;&quot;&gt;От статуса карточки зависит её цвет&lt;br&gt;0 - по умолчанию (серый)&lt;br&gt;1 - Зелёный&lt;br&gt;2 - Жёлтый&lt;br&gt;3 - Красный&lt;/font&gt;" style="text;html=1;strokeColor=none;fillColor=none;align=left;verticalAlign=top;whiteSpace=wrap;rounded=0;" parent="1" vertex="1">
          <mxGeometry x="523" y="870" width="310" height="90" as="geometry" />
        </mxCell>
        <mxCell id="4DtvbH22VJhIOe2bg9fZ-41" value="" style="endArrow=classic;html=1;rounded=0;entryX=0.713;entryY=-0.061;entryDx=0;entryDy=0;entryPerimeter=0;exitX=0.25;exitY=1;exitDx=0;exitDy=0;" parent="1" source="4DtvbH22VJhIOe2bg9fZ-40" target="4DtvbH22VJhIOe2bg9fZ-2" edge="1">
          <mxGeometry width="50" height="50" relative="1" as="geometry">
            <mxPoint x="919" y="700" as="sourcePoint" />
            <mxPoint x="969" y="650" as="targetPoint" />
          </mxGeometry>
        </mxCell>
        <mxCell id="4DtvbH22VJhIOe2bg9fZ-1" value="Карточки" style="shape=table;startSize=40;container=1;collapsible=0;childLayout=tableLayout;strokeColor=default;fontSize=16;" parent="1" vertex="1">
          <mxGeometry x="-37" y="1000" width="900.0000000000002" height="170.00000000000023" as="geometry" />
        </mxCell>
        <mxCell id="4DtvbH22VJhIOe2bg9fZ-2" value="" style="shape=tableRow;horizontal=0;startSize=0;swimlaneHead=0;swimlaneBody=0;strokeColor=inherit;top=0;left=0;bottom=0;right=0;collapsible=0;dropTarget=0;fillColor=none;points=[[0,0.5],[1,0.5]];portConstraint=eastwest;fontSize=16;" parent="4DtvbH22VJhIOe2bg9fZ-1" vertex="1">
          <mxGeometry y="40" width="900.0000000000002" height="56" as="geometry" />
        </mxCell>
        <mxCell id="4DtvbH22VJhIOe2bg9fZ-3" value="card_id" style="shape=partialRectangle;html=1;whiteSpace=wrap;connectable=0;strokeColor=inherit;overflow=hidden;fillColor=none;top=0;left=0;bottom=0;right=0;pointerEvents=1;fontSize=16;" parent="4DtvbH22VJhIOe2bg9fZ-2" vertex="1">
          <mxGeometry width="100" height="56" as="geometry">
            <mxRectangle width="100" height="56" as="alternateBounds" />
          </mxGeometry>
        </mxCell>
        <mxCell id="4DtvbH22VJhIOe2bg9fZ-47" value="column_id" style="shape=partialRectangle;html=1;whiteSpace=wrap;connectable=0;strokeColor=inherit;overflow=hidden;fillColor=none;top=0;left=0;bottom=0;right=0;pointerEvents=1;fontSize=16;" parent="4DtvbH22VJhIOe2bg9fZ-2" vertex="1">
          <mxGeometry x="100" width="130" height="56" as="geometry">
            <mxRectangle width="130" height="56" as="alternateBounds" />
          </mxGeometry>
        </mxCell>
        <mxCell id="4DtvbH22VJhIOe2bg9fZ-4" value="card_title" style="shape=partialRectangle;html=1;whiteSpace=wrap;connectable=0;strokeColor=inherit;overflow=hidden;fillColor=none;top=0;left=0;bottom=0;right=0;pointerEvents=1;fontSize=16;" parent="4DtvbH22VJhIOe2bg9fZ-2" vertex="1">
          <mxGeometry x="230" width="130" height="56" as="geometry">
            <mxRectangle width="130" height="56" as="alternateBounds" />
          </mxGeometry>
        </mxCell>
        <mxCell id="4DtvbH22VJhIOe2bg9fZ-5" value="card_text" style="shape=partialRectangle;html=1;whiteSpace=wrap;connectable=0;strokeColor=inherit;overflow=hidden;fillColor=none;top=0;left=0;bottom=0;right=0;pointerEvents=1;fontSize=16;" parent="4DtvbH22VJhIOe2bg9fZ-2" vertex="1">
          <mxGeometry x="360" width="180" height="56" as="geometry">
            <mxRectangle width="180" height="56" as="alternateBounds" />
          </mxGeometry>
        </mxCell>
        <mxCell id="4DtvbH22VJhIOe2bg9fZ-50" value="card_status" style="shape=partialRectangle;html=1;whiteSpace=wrap;connectable=0;strokeColor=inherit;overflow=hidden;fillColor=none;top=0;left=0;bottom=0;right=0;pointerEvents=1;fontSize=16;" parent="4DtvbH22VJhIOe2bg9fZ-2" vertex="1">
          <mxGeometry x="540" width="180" height="56" as="geometry">
            <mxRectangle width="180" height="56" as="alternateBounds" />
          </mxGeometry>
        </mxCell>
        <mxCell id="4DtvbH22VJhIOe2bg9fZ-53" value="card_number_in_column" style="shape=partialRectangle;html=1;whiteSpace=wrap;connectable=0;strokeColor=inherit;overflow=hidden;fillColor=none;top=0;left=0;bottom=0;right=0;pointerEvents=1;fontSize=16;" parent="4DtvbH22VJhIOe2bg9fZ-2" vertex="1">
          <mxGeometry x="720" width="180" height="56" as="geometry">
            <mxRectangle width="180" height="56" as="alternateBounds" />
          </mxGeometry>
        </mxCell>
        <mxCell id="4DtvbH22VJhIOe2bg9fZ-6" value="" style="shape=tableRow;horizontal=0;startSize=0;swimlaneHead=0;swimlaneBody=0;strokeColor=inherit;top=0;left=0;bottom=0;right=0;collapsible=0;dropTarget=0;fillColor=none;points=[[0,0.5],[1,0.5]];portConstraint=eastwest;fontSize=16;" parent="4DtvbH22VJhIOe2bg9fZ-1" vertex="1">
          <mxGeometry y="96" width="900.0000000000002" height="37" as="geometry" />
        </mxCell>
        <mxCell id="4DtvbH22VJhIOe2bg9fZ-7" value="1" style="shape=partialRectangle;html=1;whiteSpace=wrap;connectable=0;strokeColor=inherit;overflow=hidden;fillColor=none;top=0;left=0;bottom=0;right=0;pointerEvents=1;fontSize=16;" parent="4DtvbH22VJhIOe2bg9fZ-6" vertex="1">
          <mxGeometry width="100" height="37" as="geometry">
            <mxRectangle width="100" height="37" as="alternateBounds" />
          </mxGeometry>
        </mxCell>
        <mxCell id="4DtvbH22VJhIOe2bg9fZ-48" value="1" style="shape=partialRectangle;html=1;whiteSpace=wrap;connectable=0;strokeColor=inherit;overflow=hidden;fillColor=none;top=0;left=0;bottom=0;right=0;pointerEvents=1;fontSize=16;" parent="4DtvbH22VJhIOe2bg9fZ-6" vertex="1">
          <mxGeometry x="100" width="130" height="37" as="geometry">
            <mxRectangle width="130" height="37" as="alternateBounds" />
          </mxGeometry>
        </mxCell>
        <mxCell id="4DtvbH22VJhIOe2bg9fZ-8" value="Заголовок 1" style="shape=partialRectangle;html=1;whiteSpace=wrap;connectable=0;strokeColor=inherit;overflow=hidden;fillColor=none;top=0;left=0;bottom=0;right=0;pointerEvents=1;fontSize=16;" parent="4DtvbH22VJhIOe2bg9fZ-6" vertex="1">
          <mxGeometry x="230" width="130" height="37" as="geometry">
            <mxRectangle width="130" height="37" as="alternateBounds" />
          </mxGeometry>
        </mxCell>
        <mxCell id="4DtvbH22VJhIOe2bg9fZ-9" value="текст карточки" style="shape=partialRectangle;html=1;whiteSpace=wrap;connectable=0;strokeColor=inherit;overflow=hidden;fillColor=none;top=0;left=0;bottom=0;right=0;pointerEvents=1;fontSize=16;" parent="4DtvbH22VJhIOe2bg9fZ-6" vertex="1">
          <mxGeometry x="360" width="180" height="37" as="geometry">
            <mxRectangle width="180" height="37" as="alternateBounds" />
          </mxGeometry>
        </mxCell>
        <mxCell id="4DtvbH22VJhIOe2bg9fZ-51" value="1" style="shape=partialRectangle;html=1;whiteSpace=wrap;connectable=0;strokeColor=inherit;overflow=hidden;fillColor=none;top=0;left=0;bottom=0;right=0;pointerEvents=1;fontSize=16;" parent="4DtvbH22VJhIOe2bg9fZ-6" vertex="1">
          <mxGeometry x="540" width="180" height="37" as="geometry">
            <mxRectangle width="180" height="37" as="alternateBounds" />
          </mxGeometry>
        </mxCell>
        <mxCell id="4DtvbH22VJhIOe2bg9fZ-54" value="0" style="shape=partialRectangle;html=1;whiteSpace=wrap;connectable=0;strokeColor=inherit;overflow=hidden;fillColor=none;top=0;left=0;bottom=0;right=0;pointerEvents=1;fontSize=16;" parent="4DtvbH22VJhIOe2bg9fZ-6" vertex="1">
          <mxGeometry x="720" width="180" height="37" as="geometry">
            <mxRectangle width="180" height="37" as="alternateBounds" />
          </mxGeometry>
        </mxCell>
        <mxCell id="4DtvbH22VJhIOe2bg9fZ-10" value="" style="shape=tableRow;horizontal=0;startSize=0;swimlaneHead=0;swimlaneBody=0;strokeColor=inherit;top=0;left=0;bottom=0;right=0;collapsible=0;dropTarget=0;fillColor=none;points=[[0,0.5],[1,0.5]];portConstraint=eastwest;fontSize=16;" parent="4DtvbH22VJhIOe2bg9fZ-1" vertex="1">
          <mxGeometry y="133" width="900.0000000000002" height="37" as="geometry" />
        </mxCell>
        <mxCell id="4DtvbH22VJhIOe2bg9fZ-11" value="2" style="shape=partialRectangle;html=1;whiteSpace=wrap;connectable=0;strokeColor=inherit;overflow=hidden;fillColor=none;top=0;left=0;bottom=0;right=0;pointerEvents=1;fontSize=16;" parent="4DtvbH22VJhIOe2bg9fZ-10" vertex="1">
          <mxGeometry width="100" height="37" as="geometry">
            <mxRectangle width="100" height="37" as="alternateBounds" />
          </mxGeometry>
        </mxCell>
        <mxCell id="4DtvbH22VJhIOe2bg9fZ-49" value="1" style="shape=partialRectangle;html=1;whiteSpace=wrap;connectable=0;strokeColor=inherit;overflow=hidden;fillColor=none;top=0;left=0;bottom=0;right=0;pointerEvents=1;fontSize=16;" parent="4DtvbH22VJhIOe2bg9fZ-10" vertex="1">
          <mxGeometry x="100" width="130" height="37" as="geometry">
            <mxRectangle width="130" height="37" as="alternateBounds" />
          </mxGeometry>
        </mxCell>
        <mxCell id="4DtvbH22VJhIOe2bg9fZ-12" value="Заголовок 2" style="shape=partialRectangle;html=1;whiteSpace=wrap;connectable=0;strokeColor=inherit;overflow=hidden;fillColor=none;top=0;left=0;bottom=0;right=0;pointerEvents=1;fontSize=16;" parent="4DtvbH22VJhIOe2bg9fZ-10" vertex="1">
          <mxGeometry x="230" width="130" height="37" as="geometry">
            <mxRectangle width="130" height="37" as="alternateBounds" />
          </mxGeometry>
        </mxCell>
        <mxCell id="4DtvbH22VJhIOe2bg9fZ-13" value="текст карточки" style="shape=partialRectangle;html=1;whiteSpace=wrap;connectable=0;strokeColor=inherit;overflow=hidden;fillColor=none;top=0;left=0;bottom=0;right=0;pointerEvents=1;fontSize=16;" parent="4DtvbH22VJhIOe2bg9fZ-10" vertex="1">
          <mxGeometry x="360" width="180" height="37" as="geometry">
            <mxRectangle width="180" height="37" as="alternateBounds" />
          </mxGeometry>
        </mxCell>
        <mxCell id="4DtvbH22VJhIOe2bg9fZ-52" value="3" style="shape=partialRectangle;html=1;whiteSpace=wrap;connectable=0;strokeColor=inherit;overflow=hidden;fillColor=none;top=0;left=0;bottom=0;right=0;pointerEvents=1;fontSize=16;" parent="4DtvbH22VJhIOe2bg9fZ-10" vertex="1">
          <mxGeometry x="540" width="180" height="37" as="geometry">
            <mxRectangle width="180" height="37" as="alternateBounds" />
          </mxGeometry>
        </mxCell>
        <mxCell id="4DtvbH22VJhIOe2bg9fZ-55" value="1" style="shape=partialRectangle;html=1;whiteSpace=wrap;connectable=0;strokeColor=inherit;overflow=hidden;fillColor=none;top=0;left=0;bottom=0;right=0;pointerEvents=1;fontSize=16;" parent="4DtvbH22VJhIOe2bg9fZ-10" vertex="1">
          <mxGeometry x="720" width="180" height="37" as="geometry">
            <mxRectangle width="180" height="37" as="alternateBounds" />
          </mxGeometry>
        </mxCell>
        <mxCell id="4DtvbH22VJhIOe2bg9fZ-56" value="" style="endArrow=classic;html=1;rounded=0;entryX=0.178;entryY=0.006;entryDx=0;entryDy=0;exitX=0.081;exitY=1.075;exitDx=0;exitDy=0;exitPerimeter=0;entryPerimeter=0;" parent="1" source="GIW9BwxVYmhCBeV7tSWF-10" target="4DtvbH22VJhIOe2bg9fZ-2" edge="1">
          <mxGeometry width="50" height="50" relative="1" as="geometry">
            <mxPoint x="120" y="870" as="sourcePoint" />
            <mxPoint x="70" y="920" as="targetPoint" />
          </mxGeometry>
        </mxCell>
        <mxCell id="4DtvbH22VJhIOe2bg9fZ-57" value="id колонки, которой принадлежит карточка" style="text;html=1;strokeColor=none;fillColor=none;align=center;verticalAlign=middle;whiteSpace=wrap;rounded=0;fontSize=14;" parent="1" vertex="1">
          <mxGeometry x="110" y="880" width="160" height="80" as="geometry" />
        </mxCell>
      </root>
    </mxGraphModel>
  </diagram>
  <diagram id="nMatpwXFBkr09BWj23aj" name="Дизайн">
    <mxGraphModel dx="2004" dy="1102" grid="1" gridSize="10" guides="1" tooltips="1" connect="1" arrows="1" fold="1" page="1" pageScale="1" pageWidth="827" pageHeight="1169" math="0" shadow="0">
      <root>
        <mxCell id="0" />
        <mxCell id="1" parent="0" />
        <mxCell id="nSInZBPxdhiPOMCZFj8m-3" value="" style="rounded=0;whiteSpace=wrap;html=1;" parent="1" vertex="1">
          <mxGeometry x="80" y="140" width="800" height="620" as="geometry" />
        </mxCell>
        <mxCell id="nSInZBPxdhiPOMCZFj8m-4" value="" style="rounded=0;whiteSpace=wrap;html=1;" parent="1" vertex="1">
          <mxGeometry x="70" y="140" width="180" height="620" as="geometry" />
        </mxCell>
        <mxCell id="nSInZBPxdhiPOMCZFj8m-5" value="Мои доски" style="rounded=1;whiteSpace=wrap;html=1;fontSize=16;" parent="1" vertex="1">
          <mxGeometry x="80" y="160" width="100" height="40" as="geometry" />
        </mxCell>
        <mxCell id="5KQWf_K5PqXa0-I3CzIr-1" value="" style="endArrow=none;html=1;rounded=0;entryX=0;entryY=1;entryDx=0;entryDy=0;" parent="1" target="DMYy-hoLyCdZU0zHhrf6-20" edge="1">
          <mxGeometry width="50" height="50" relative="1" as="geometry">
            <mxPoint x="70" y="220" as="sourcePoint" />
            <mxPoint x="250" y="213" as="targetPoint" />
          </mxGeometry>
        </mxCell>
        <mxCell id="5KQWf_K5PqXa0-I3CzIr-3" value="&lt;font style=&quot;font-size: 16px;&quot;&gt;+&lt;/font&gt;" style="rounded=1;whiteSpace=wrap;html=1;" parent="1" vertex="1">
          <mxGeometry x="190" y="165" width="40" height="30" as="geometry" />
        </mxCell>
        <mxCell id="5KQWf_K5PqXa0-I3CzIr-4" value="Доска 1" style="rounded=1;whiteSpace=wrap;html=1;fillColor=#f5f5f5;fontColor=#333333;strokeColor=#666666;" parent="1" vertex="1">
          <mxGeometry x="80" y="230" width="150" height="40" as="geometry" />
        </mxCell>
        <mxCell id="5KQWf_K5PqXa0-I3CzIr-5" value="Доска 2" style="rounded=1;whiteSpace=wrap;html=1;fillColor=#d5e8d4;strokeColor=#82b366;" parent="1" vertex="1">
          <mxGeometry x="80" y="290" width="150" height="40" as="geometry" />
        </mxCell>
        <mxCell id="5KQWf_K5PqXa0-I3CzIr-6" value="Доска 3" style="rounded=1;whiteSpace=wrap;html=1;fillColor=#f5f5f5;fontColor=#333333;strokeColor=#666666;" parent="1" vertex="1">
          <mxGeometry x="80" y="350" width="150" height="40" as="geometry" />
        </mxCell>
        <mxCell id="5KQWf_K5PqXa0-I3CzIr-7" value="Доска 4" style="rounded=1;whiteSpace=wrap;html=1;fillColor=#f5f5f5;fontColor=#333333;strokeColor=#666666;" parent="1" vertex="1">
          <mxGeometry x="80" y="410" width="150" height="40" as="geometry" />
        </mxCell>
        <mxCell id="DMYy-hoLyCdZU0zHhrf6-4" value="Колонка 1" style="rounded=1;whiteSpace=wrap;html=1;align=left;verticalAlign=top;horizontal=1;fontSize=16;labelPosition=center;verticalLabelPosition=middle;spacingTop=20;spacingLeft=20;" parent="1" vertex="1">
          <mxGeometry x="290" y="240" width="180" height="360" as="geometry" />
        </mxCell>
        <mxCell id="DMYy-hoLyCdZU0zHhrf6-12" value="Заголовок 1" style="rounded=1;whiteSpace=wrap;html=1;fillColor=#d5e8d4;strokeColor=#82b366;align=left;spacingLeft=13;" parent="1" vertex="1">
          <mxGeometry x="300" y="310" width="160" height="60" as="geometry" />
        </mxCell>
        <mxCell id="DMYy-hoLyCdZU0zHhrf6-14" value="Добавить карточку" style="rounded=1;whiteSpace=wrap;html=1;" parent="1" vertex="1">
          <mxGeometry x="300" y="524.5" width="160" height="60" as="geometry" />
        </mxCell>
        <mxCell id="DMYy-hoLyCdZU0zHhrf6-15" value="&lt;font style=&quot;font-size: 16px;&quot;&gt;Добавить колонку&lt;/font&gt;" style="rounded=1;whiteSpace=wrap;html=1;fontSize=16;" parent="1" vertex="1">
          <mxGeometry x="690" y="240" width="168" height="80" as="geometry" />
        </mxCell>
        <mxCell id="DMYy-hoLyCdZU0zHhrf6-20" value="&lt;font style=&quot;font-size: 18px;&quot;&gt;Доска 2&lt;/font&gt;" style="rounded=0;whiteSpace=wrap;html=1;" parent="1" vertex="1">
          <mxGeometry x="250" y="140" width="630" height="80" as="geometry" />
        </mxCell>
        <mxCell id="DMYy-hoLyCdZU0zHhrf6-22" value="Заголовок 2" style="rounded=1;whiteSpace=wrap;html=1;fillColor=#f8cecc;strokeColor=#b85450;align=left;spacingLeft=13;" parent="1" vertex="1">
          <mxGeometry x="300" y="380" width="160" height="60" as="geometry" />
        </mxCell>
        <mxCell id="DMYy-hoLyCdZU0zHhrf6-23" value="Заголовок 2" style="rounded=1;whiteSpace=wrap;html=1;fillColor=#e1d5e7;strokeColor=#9673a6;align=left;spacingLeft=13;" parent="1" vertex="1">
          <mxGeometry x="300" y="450" width="160" height="60" as="geometry" />
        </mxCell>
        <mxCell id="DMYy-hoLyCdZU0zHhrf6-26" value="Колонка 3" style="rounded=1;whiteSpace=wrap;html=1;align=left;verticalAlign=top;horizontal=1;fontSize=16;labelPosition=center;verticalLabelPosition=middle;spacingTop=20;spacingLeft=20;" parent="1" vertex="1">
          <mxGeometry x="490" y="240" width="180" height="290" as="geometry" />
        </mxCell>
        <mxCell id="DMYy-hoLyCdZU0zHhrf6-27" value="Добавить карточку" style="rounded=1;whiteSpace=wrap;html=1;" parent="1" vertex="1">
          <mxGeometry x="500" y="450" width="160" height="60" as="geometry" />
        </mxCell>
        <mxCell id="DMYy-hoLyCdZU0zHhrf6-29" value="Красный и&amp;nbsp;" style="rounded=1;whiteSpace=wrap;html=1;fillColor=#dae8fc;strokeColor=#6c8ebf;align=left;spacingLeft=13;" parent="1" vertex="1">
          <mxGeometry x="500" y="380" width="160" height="60" as="geometry" />
        </mxCell>
        <mxCell id="DMYy-hoLyCdZU0zHhrf6-30" value="Капролд" style="rounded=1;whiteSpace=wrap;html=1;fillColor=#d5e8d4;strokeColor=#82b366;align=left;spacingLeft=13;" parent="1" vertex="1">
          <mxGeometry x="500" y="310" width="160" height="60" as="geometry" />
        </mxCell>
        <mxCell id="DMYy-hoLyCdZU0zHhrf6-31" value="Удалить" style="rounded=1;whiteSpace=wrap;html=1;" parent="1" vertex="1">
          <mxGeometry x="767" y="165" width="60" height="30" as="geometry" />
        </mxCell>
        <mxCell id="DMYy-hoLyCdZU0zHhrf6-68" value="" style="endArrow=classic;html=1;rounded=0;entryX=0;entryY=0.5;entryDx=0;entryDy=0;exitX=1;exitY=0.5;exitDx=0;exitDy=0;" parent="1" source="DMYy-hoLyCdZU0zHhrf6-29" target="DMYy-hoLyCdZU0zHhrf6-69" edge="1">
          <mxGeometry width="50" height="50" relative="1" as="geometry">
            <mxPoint x="660" y="890" as="sourcePoint" />
            <mxPoint x="787.8999999999996" y="1037.3600000000001" as="targetPoint" />
          </mxGeometry>
        </mxCell>
        <mxCell id="DMYy-hoLyCdZU0zHhrf6-69" value="" style="rounded=1;whiteSpace=wrap;html=1;fillColor=#dae8fc;strokeColor=#6c8ebf;" parent="1" vertex="1">
          <mxGeometry x="1010" y="180" width="490" height="520" as="geometry" />
        </mxCell>
        <mxCell id="DMYy-hoLyCdZU0zHhrf6-70" value="&lt;span style=&quot;font-size: 14px;&quot;&gt;Красный и&lt;/span&gt;" style="rounded=1;whiteSpace=wrap;html=1;" parent="1" vertex="1">
          <mxGeometry x="1066.25" y="230" width="410" height="60" as="geometry" />
        </mxCell>
        <mxCell id="DMYy-hoLyCdZU0zHhrf6-71" value="&lt;span style=&quot;font-size: 14px;&quot;&gt;Текст карточки&lt;/span&gt;" style="rounded=1;whiteSpace=wrap;html=1;" parent="1" vertex="1">
          <mxGeometry x="1056.25" y="315" width="407.5" height="190" as="geometry" />
        </mxCell>
        <mxCell id="DMYy-hoLyCdZU0zHhrf6-72" value="&lt;span style=&quot;font-size: 14px;&quot;&gt;Закрыть карточку&lt;/span&gt;" style="rounded=1;whiteSpace=wrap;html=1;" parent="1" vertex="1">
          <mxGeometry x="1170" y="610" width="180" height="40" as="geometry" />
        </mxCell>
        <mxCell id="DMYy-hoLyCdZU0zHhrf6-73" value="&lt;font style=&quot;font-size: 14px;&quot;&gt;Статус: синий&lt;/font&gt;" style="rounded=1;whiteSpace=wrap;html=1;" parent="1" vertex="1">
          <mxGeometry x="1062.5" y="520" width="417.5" height="47.5" as="geometry" />
        </mxCell>
      </root>
    </mxGraphModel>
  </diagram>
  <diagram id="QjlUnTsoGaQoaqSLlpHO" name="Интерфейс ">
    <mxGraphModel dx="4167" dy="3006" grid="1" gridSize="10" guides="1" tooltips="1" connect="1" arrows="1" fold="1" page="1" pageScale="1" pageWidth="827" pageHeight="1169" math="0" shadow="0">
      <root>
        <mxCell id="0" />
        <mxCell id="1" parent="0" />
        <mxCell id="SBs6i2xUkFgFT9Xq88V2-1" value="" style="rounded=0;whiteSpace=wrap;html=1;" parent="1" vertex="1">
          <mxGeometry x="80" y="140" width="800" height="620" as="geometry" />
        </mxCell>
        <mxCell id="SBs6i2xUkFgFT9Xq88V2-2" value="" style="rounded=0;whiteSpace=wrap;html=1;" parent="1" vertex="1">
          <mxGeometry x="70" y="140" width="180" height="620" as="geometry" />
        </mxCell>
        <mxCell id="SBs6i2xUkFgFT9Xq88V2-3" value="Мои доски" style="rounded=1;whiteSpace=wrap;html=1;fontSize=16;" parent="1" vertex="1">
          <mxGeometry x="80" y="160" width="100" height="40" as="geometry" />
        </mxCell>
        <mxCell id="SBs6i2xUkFgFT9Xq88V2-4" value="" style="endArrow=none;html=1;rounded=0;entryX=0;entryY=1;entryDx=0;entryDy=0;" parent="1" target="SBs6i2xUkFgFT9Xq88V2-14" edge="1">
          <mxGeometry width="50" height="50" relative="1" as="geometry">
            <mxPoint x="70" y="220" as="sourcePoint" />
            <mxPoint x="250" y="213" as="targetPoint" />
          </mxGeometry>
        </mxCell>
        <mxCell id="SBs6i2xUkFgFT9Xq88V2-5" value="&lt;font style=&quot;font-size: 16px;&quot;&gt;+&lt;/font&gt;" style="rounded=1;whiteSpace=wrap;html=1;" parent="1" vertex="1">
          <mxGeometry x="190" y="165" width="40" height="30" as="geometry" />
        </mxCell>
        <mxCell id="SBs6i2xUkFgFT9Xq88V2-6" value="Доска 1" style="rounded=1;whiteSpace=wrap;html=1;fillColor=#f5f5f5;fontColor=#333333;strokeColor=#666666;" parent="1" vertex="1">
          <mxGeometry x="80" y="230" width="150" height="40" as="geometry" />
        </mxCell>
        <mxCell id="SBs6i2xUkFgFT9Xq88V2-7" value="Доска 2" style="rounded=1;whiteSpace=wrap;html=1;fillColor=#d5e8d4;strokeColor=#82b366;" parent="1" vertex="1">
          <mxGeometry x="80" y="290" width="150" height="40" as="geometry" />
        </mxCell>
        <mxCell id="SBs6i2xUkFgFT9Xq88V2-8" value="Доска 3" style="rounded=1;whiteSpace=wrap;html=1;fillColor=#f5f5f5;fontColor=#333333;strokeColor=#666666;" parent="1" vertex="1">
          <mxGeometry x="80" y="350" width="150" height="40" as="geometry" />
        </mxCell>
        <mxCell id="SBs6i2xUkFgFT9Xq88V2-9" value="Доска 4" style="rounded=1;whiteSpace=wrap;html=1;fillColor=#f5f5f5;fontColor=#333333;strokeColor=#666666;" parent="1" vertex="1">
          <mxGeometry x="80" y="410" width="150" height="40" as="geometry" />
        </mxCell>
        <mxCell id="SBs6i2xUkFgFT9Xq88V2-10" value="Колонка 1" style="rounded=1;whiteSpace=wrap;html=1;align=left;verticalAlign=top;horizontal=1;fontSize=16;labelPosition=center;verticalLabelPosition=middle;spacingTop=20;spacingLeft=20;" parent="1" vertex="1">
          <mxGeometry x="290" y="240" width="180" height="360" as="geometry" />
        </mxCell>
        <mxCell id="SBs6i2xUkFgFT9Xq88V2-11" value="Заголовок 1" style="rounded=1;whiteSpace=wrap;html=1;fillColor=#d5e8d4;strokeColor=#82b366;align=left;spacingLeft=13;" parent="1" vertex="1">
          <mxGeometry x="300" y="310" width="160" height="60" as="geometry" />
        </mxCell>
        <mxCell id="SBs6i2xUkFgFT9Xq88V2-12" value="Добавить карточку" style="rounded=1;whiteSpace=wrap;html=1;" parent="1" vertex="1">
          <mxGeometry x="300" y="524.5" width="160" height="60" as="geometry" />
        </mxCell>
        <mxCell id="SBs6i2xUkFgFT9Xq88V2-13" value="&lt;font style=&quot;font-size: 16px;&quot;&gt;Добавить колонку&lt;/font&gt;" style="rounded=1;whiteSpace=wrap;html=1;fontSize=16;" parent="1" vertex="1">
          <mxGeometry x="690" y="240" width="168" height="80" as="geometry" />
        </mxCell>
        <mxCell id="SBs6i2xUkFgFT9Xq88V2-14" value="&lt;font style=&quot;font-size: 18px;&quot;&gt;Доска 2&lt;/font&gt;" style="rounded=0;whiteSpace=wrap;html=1;" parent="1" vertex="1">
          <mxGeometry x="250" y="140" width="630" height="80" as="geometry" />
        </mxCell>
        <mxCell id="SBs6i2xUkFgFT9Xq88V2-15" value="Заголовок 2" style="rounded=1;whiteSpace=wrap;html=1;fillColor=#f8cecc;strokeColor=#b85450;align=left;spacingLeft=13;" parent="1" vertex="1">
          <mxGeometry x="300" y="380" width="160" height="60" as="geometry" />
        </mxCell>
        <mxCell id="SBs6i2xUkFgFT9Xq88V2-16" value="Заголовок 2" style="rounded=1;whiteSpace=wrap;html=1;fillColor=#e1d5e7;strokeColor=#9673a6;align=left;spacingLeft=13;" parent="1" vertex="1">
          <mxGeometry x="300" y="450" width="160" height="60" as="geometry" />
        </mxCell>
        <mxCell id="SBs6i2xUkFgFT9Xq88V2-17" value="Колонка 3" style="rounded=1;whiteSpace=wrap;html=1;align=left;verticalAlign=top;horizontal=1;fontSize=16;labelPosition=center;verticalLabelPosition=middle;spacingTop=20;spacingLeft=20;" parent="1" vertex="1">
          <mxGeometry x="490" y="240" width="180" height="290" as="geometry" />
        </mxCell>
        <mxCell id="SBs6i2xUkFgFT9Xq88V2-18" value="Добавить карточку" style="rounded=1;whiteSpace=wrap;html=1;" parent="1" vertex="1">
          <mxGeometry x="500" y="450" width="160" height="60" as="geometry" />
        </mxCell>
        <mxCell id="SBs6i2xUkFgFT9Xq88V2-19" value="Красный и&amp;nbsp;" style="rounded=1;whiteSpace=wrap;html=1;fillColor=#dae8fc;strokeColor=#6c8ebf;align=left;spacingLeft=13;" parent="1" vertex="1">
          <mxGeometry x="500" y="380" width="160" height="60" as="geometry" />
        </mxCell>
        <mxCell id="SBs6i2xUkFgFT9Xq88V2-20" value="Капролд" style="rounded=1;whiteSpace=wrap;html=1;fillColor=#d5e8d4;strokeColor=#82b366;align=left;spacingLeft=13;" parent="1" vertex="1">
          <mxGeometry x="500" y="310" width="160" height="60" as="geometry" />
        </mxCell>
        <mxCell id="SBs6i2xUkFgFT9Xq88V2-21" value="Удалить" style="rounded=1;whiteSpace=wrap;html=1;" parent="1" vertex="1">
          <mxGeometry x="767" y="165" width="60" height="30" as="geometry" />
        </mxCell>
        <mxCell id="SBs6i2xUkFgFT9Xq88V2-23" value="" style="rounded=1;whiteSpace=wrap;html=1;fillColor=#dae8fc;strokeColor=#6c8ebf;" parent="1" vertex="1">
          <mxGeometry x="1690" y="130" width="490" height="520" as="geometry" />
        </mxCell>
        <mxCell id="SBs6i2xUkFgFT9Xq88V2-24" value="&lt;span style=&quot;font-size: 14px;&quot;&gt;Красный и&lt;/span&gt;" style="rounded=1;whiteSpace=wrap;html=1;" parent="1" vertex="1">
          <mxGeometry x="1746.25" y="180" width="410" height="60" as="geometry" />
        </mxCell>
        <mxCell id="SBs6i2xUkFgFT9Xq88V2-25" value="&lt;span style=&quot;font-size: 14px;&quot;&gt;Текст карточки&lt;/span&gt;" style="rounded=1;whiteSpace=wrap;html=1;" parent="1" vertex="1">
          <mxGeometry x="1736.25" y="265" width="407.5" height="190" as="geometry" />
        </mxCell>
        <mxCell id="SBs6i2xUkFgFT9Xq88V2-26" value="&lt;span style=&quot;font-size: 14px;&quot;&gt;Закрыть карточку&lt;/span&gt;" style="rounded=1;whiteSpace=wrap;html=1;" parent="1" vertex="1">
          <mxGeometry x="1850" y="560" width="180" height="40" as="geometry" />
        </mxCell>
        <mxCell id="SBs6i2xUkFgFT9Xq88V2-27" value="&lt;font style=&quot;font-size: 14px;&quot;&gt;Статус: синий&lt;/font&gt;" style="rounded=1;whiteSpace=wrap;html=1;" parent="1" vertex="1">
          <mxGeometry x="1742.5" y="470" width="417.5" height="47.5" as="geometry" />
        </mxCell>
        <mxCell id="CMYAUn2gfiETQiYBEddP-1" value="Создаём экземпляр класса&amp;nbsp;&lt;b style=&quot;font-size: 17px;&quot;&gt;UserInterface&lt;br&gt;&lt;/b&gt;&lt;br style=&quot;font-size: 17px;&quot;&gt;&lt;b style=&quot;font-size: 17px;&quot;&gt;user_interface = UserInterface(l)&lt;br&gt;&lt;br&gt;&lt;/b&gt;" style="text;html=1;strokeColor=#82b366;fillColor=#d5e8d4;align=left;verticalAlign=top;whiteSpace=wrap;rounded=0;fontSize=17;" parent="1" vertex="1">
          <mxGeometry x="1071" y="-170" width="340" height="90" as="geometry" />
        </mxCell>
        <mxCell id="CMYAUn2gfiETQiYBEddP-2" value="&lt;b style=&quot;font-size: 17px;&quot;&gt;user_interface.get_decks() or .&lt;/b&gt;&lt;b&gt;desks&lt;br&gt;Либо метод, либо property&lt;br&gt;&lt;/b&gt;" style="text;html=1;align=left;verticalAlign=top;whiteSpace=wrap;rounded=0;fontSize=17;fillColor=#eeeeee;strokeColor=#36393d;" parent="1" vertex="1">
          <mxGeometry x="-430" y="270" width="310" height="70" as="geometry" />
        </mxCell>
        <mxCell id="CMYAUn2gfiETQiYBEddP-4" value="" style="endArrow=classic;html=1;rounded=0;entryX=-0.006;entryY=0.279;entryDx=0;entryDy=0;entryPerimeter=0;exitX=1;exitY=0.5;exitDx=0;exitDy=0;" parent="1" source="CMYAUn2gfiETQiYBEddP-2" target="SBs6i2xUkFgFT9Xq88V2-2" edge="1">
          <mxGeometry width="50" height="50" relative="1" as="geometry">
            <mxPoint x="-40" y="330" as="sourcePoint" />
            <mxPoint x="10" y="280" as="targetPoint" />
          </mxGeometry>
        </mxCell>
        <mxCell id="CMYAUn2gfiETQiYBEddP-5" value="&lt;b style=&quot;font-size: 17px;&quot;&gt;user_interface.create_deck(desk_name=&#39;Имя доски&#39;)&amp;nbsp;&lt;/b&gt;&lt;b&gt;&lt;br&gt;&lt;/b&gt;" style="text;html=1;align=left;verticalAlign=top;whiteSpace=wrap;rounded=0;fontSize=17;fillColor=#eeeeee;strokeColor=#36393d;" parent="1" vertex="1">
          <mxGeometry x="-210" y="-10" width="380" height="70" as="geometry" />
        </mxCell>
        <mxCell id="CMYAUn2gfiETQiYBEddP-6" value="" style="endArrow=classic;html=1;rounded=0;entryX=0.5;entryY=0;entryDx=0;entryDy=0;" parent="1" source="CMYAUn2gfiETQiYBEddP-5" target="SBs6i2xUkFgFT9Xq88V2-5" edge="1">
          <mxGeometry width="50" height="50" relative="1" as="geometry">
            <mxPoint x="-90" y="190" as="sourcePoint" />
            <mxPoint x="-40" y="140" as="targetPoint" />
          </mxGeometry>
        </mxCell>
        <mxCell id="CMYAUn2gfiETQiYBEddP-7" value="&lt;b style=&quot;font-size: 17px;&quot;&gt;user_interface.del_deck(desk_id=3)&amp;nbsp;&lt;/b&gt;&lt;b&gt;&lt;br&gt;&lt;/b&gt;" style="text;html=1;align=left;verticalAlign=top;whiteSpace=wrap;rounded=0;fontSize=17;fillColor=#eeeeee;strokeColor=#36393d;" parent="1" vertex="1">
          <mxGeometry x="827" y="10" width="310" height="70" as="geometry" />
        </mxCell>
        <mxCell id="CMYAUn2gfiETQiYBEddP-8" value="" style="endArrow=classic;html=1;rounded=0;entryX=0.75;entryY=0;entryDx=0;entryDy=0;exitX=0.5;exitY=1;exitDx=0;exitDy=0;" parent="1" source="CMYAUn2gfiETQiYBEddP-7" target="SBs6i2xUkFgFT9Xq88V2-21" edge="1">
          <mxGeometry width="50" height="50" relative="1" as="geometry">
            <mxPoint x="710" y="140" as="sourcePoint" />
            <mxPoint x="760" y="90" as="targetPoint" />
          </mxGeometry>
        </mxCell>
        <mxCell id="7jTyaotgeKPVsEp3o-Zs-1" value="&lt;b style=&quot;font-size: 17px;&quot;&gt;user_interface.get_deck(desk_id=2)&amp;nbsp;&lt;/b&gt;&lt;b&gt;&lt;br&gt;&lt;/b&gt;" style="text;html=1;align=left;verticalAlign=top;whiteSpace=wrap;rounded=0;fontSize=17;fillColor=#eeeeee;strokeColor=#36393d;" parent="1" vertex="1">
          <mxGeometry x="240" y="-60" width="310" height="70" as="geometry" />
        </mxCell>
        <mxCell id="7jTyaotgeKPVsEp3o-Zs-2" value="&lt;b style=&quot;font-size: 17px;&quot;&gt;user_interface.change_deck_name(desk_id=2)&amp;nbsp;&lt;/b&gt;&lt;b&gt;&lt;br&gt;&lt;/b&gt;" style="text;html=1;align=left;verticalAlign=top;whiteSpace=wrap;rounded=0;fontSize=17;fillColor=#eeeeee;strokeColor=#36393d;" parent="1" vertex="1">
          <mxGeometry x="540" y="-210" width="400" height="80" as="geometry" />
        </mxCell>
        <mxCell id="7jTyaotgeKPVsEp3o-Zs-3" value="" style="endArrow=classic;html=1;rounded=0;entryX=0.25;entryY=1;entryDx=0;entryDy=0;" parent="1" source="7jTyaotgeKPVsEp3o-Zs-1" target="SBs6i2xUkFgFT9Xq88V2-14" edge="1">
          <mxGeometry width="50" height="50" relative="1" as="geometry">
            <mxPoint x="420" y="90" as="sourcePoint" />
            <mxPoint x="470" y="40" as="targetPoint" />
          </mxGeometry>
        </mxCell>
        <mxCell id="7jTyaotgeKPVsEp3o-Zs-4" value="" style="endArrow=classic;html=1;rounded=0;entryX=0.5;entryY=0;entryDx=0;entryDy=0;exitX=0.5;exitY=1;exitDx=0;exitDy=0;" parent="1" source="7jTyaotgeKPVsEp3o-Zs-2" target="SBs6i2xUkFgFT9Xq88V2-17" edge="1">
          <mxGeometry width="50" height="50" relative="1" as="geometry">
            <mxPoint x="670" y="-40" as="sourcePoint" />
            <mxPoint x="720" y="-90" as="targetPoint" />
          </mxGeometry>
        </mxCell>
      </root>
    </mxGraphModel>
  </diagram>
  <diagram id="o3KB8sUEnPmk5aIUV2ru" name="План">
    <mxGraphModel dx="1002" dy="551" grid="1" gridSize="10" guides="1" tooltips="1" connect="1" arrows="1" fold="1" page="1" pageScale="1" pageWidth="827" pageHeight="1169" math="0" shadow="0">
      <root>
        <mxCell id="0" />
        <mxCell id="1" parent="0" />
        <mxCell id="yoxkb5DDqm9iEUlYuNgs-1" value="1) Концепт дизайна" style="text;html=1;strokeColor=#82b366;fillColor=#d5e8d4;align=center;verticalAlign=middle;whiteSpace=wrap;rounded=0;" parent="1" vertex="1">
          <mxGeometry x="150" y="120" width="220" height="70" as="geometry" />
        </mxCell>
        <mxCell id="nFc-Txibg-hnHa8rzNPV-2" value="Концепт дизайна" style="text;html=1;strokeColor=#82b366;fillColor=#d5e8d4;align=center;verticalAlign=middle;whiteSpace=wrap;rounded=0;" parent="1" vertex="1">
          <mxGeometry x="430" y="120" width="220" height="70" as="geometry" />
        </mxCell>
        <mxCell id="nFc-Txibg-hnHa8rzNPV-3" value="Интерфейс для фронтенда" style="text;html=1;align=center;verticalAlign=middle;whiteSpace=wrap;rounded=0;fillColor=#f5f5f5;fontColor=#333333;strokeColor=#666666;" parent="1" vertex="1">
          <mxGeometry x="280" y="270" width="220" height="70" as="geometry" />
        </mxCell>
        <mxCell id="nFc-Txibg-hnHa8rzNPV-4" value="Реализация фронтенда" style="rounded=0;whiteSpace=wrap;html=1;" parent="1" vertex="1">
          <mxGeometry x="130" y="390" width="220" height="100" as="geometry" />
        </mxCell>
        <mxCell id="nFc-Txibg-hnHa8rzNPV-5" value="Реализация Интерфейса (бд)" style="rounded=0;whiteSpace=wrap;html=1;" parent="1" vertex="1">
          <mxGeometry x="450" y="400" width="220" height="100" as="geometry" />
        </mxCell>
        <mxCell id="nFc-Txibg-hnHa8rzNPV-6" value="Финальное приложение + тестирование" style="rounded=0;whiteSpace=wrap;html=1;" parent="1" vertex="1">
          <mxGeometry x="260" y="550" width="270" height="110" as="geometry" />
        </mxCell>
      </root>
    </mxGraphModel>
  </diagram>
</mxfile>
